<svg width="201" height="30" viewBox="0 0 201 30" fill="none" xmlns="http://www.w3.org/2000/svg">
<mask id="mask0_81_403" style="mask-type:luminance" maskUnits="userSpaceOnUse" x="0" y="0" width="30" height="30">
<path d="M29.9237 0H0V30H29.9237V0Z" fill="white"/>
</mask>
<g mask="url(#mask0_81_403)">
<path d="M29.9237 0H9.75045C4.36542 0 0 4.34209 0 9.69834V21.4286C0 26.1623 3.85819 30 8.61747 30H9.75045V8.388C9.75045 8.14074 10.0878 8.0658 10.1936 8.28954C10.5387 9.01992 11.277 9.48618 12.0884 9.48618H20.3865C25.6539 9.48618 29.9237 5.23906 29.9237 0Z" fill="#0E90DA"/>
</g>
<path d="M40.498 26.9999V3.23991H51.1811C52.9064 3.23991 54.4104 3.53691 55.6933 4.13091C56.9761 4.70291 57.9714 5.51691 58.6792 6.57291C59.387 7.62891 59.7409 8.86089 59.7409 10.2689C59.7409 11.6549 59.387 12.8759 58.6792 13.9319C57.9714 14.9659 56.9761 15.7799 55.6933 16.3739C54.4104 16.9459 52.9064 17.2319 51.1811 17.2319H44.5457V13.5029H51.0484C52.265 13.5029 53.1939 13.2279 53.8353 12.6779C54.4989 12.1059 54.8306 11.3139 54.8306 10.3019C54.8306 9.26793 54.51 8.48691 53.8685 7.95891C53.2271 7.40889 52.2871 7.13391 51.0484 7.13391H45.6074V26.9999H40.498ZM53.968 26.9999L44.3798 14.6579H49.7877L60.8687 26.9999H53.968ZM61.9297 26.9999L70.4895 3.23991H74.8689L67.0059 26.9999H61.9297ZM79.4474 26.9999L71.6175 3.23991H76.196L84.7557 26.9999H79.4474ZM66.4419 17.7929H79.8455V21.7529H66.4419V17.7929ZM97.1803 27.3299C95.4111 27.3299 93.7745 27.0329 92.2701 26.4389C90.7886 25.8449 89.4947 25.0089 88.3883 23.9309C87.3049 22.8309 86.4532 21.5329 85.8337 20.0369C85.2365 18.5189 84.9379 16.8469 84.9379 15.0209C84.9379 12.6009 85.4579 10.4889 86.4972 8.68491C87.5372 6.85893 88.9747 5.43991 90.8103 4.42791C92.6682 3.41591 94.7807 2.90991 97.1471 2.90991C99.5582 2.90991 101.682 3.41591 103.517 4.42791C105.353 5.43991 106.791 6.85893 107.83 8.68491C108.892 10.5109 109.423 12.6339 109.423 15.0539C109.423 16.8579 109.113 18.5189 108.494 20.0369C107.897 21.5329 107.045 22.8309 105.939 23.9309C104.856 25.0089 103.562 25.8449 102.057 26.4389C100.576 27.0329 98.9502 27.3299 97.1803 27.3299ZM97.1471 23.3039C98.5406 23.3039 99.7682 22.9519 100.83 22.2479C101.892 21.5439 102.721 20.5759 103.318 19.3439C103.938 18.0899 104.247 16.6379 104.247 14.9879C104.247 13.3599 103.948 11.9409 103.351 10.7309C102.754 9.52089 101.925 8.58591 100.863 7.92591C99.8013 7.26591 98.5629 6.93591 97.1471 6.93591C95.7537 6.93591 94.5261 7.26591 93.4645 7.92591C92.4028 8.58591 91.5734 9.52089 90.9762 10.7309C90.4013 11.9189 90.1136 13.3379 90.1136 14.9879C90.1136 16.6599 90.4122 18.1229 91.0093 19.3769C91.6065 20.6089 92.436 21.5769 93.4976 22.2809C94.5593 22.9629 95.776 23.3039 97.1471 23.3039ZM117.257 26.9999V7.13391H109.46V3.23991H130.163V7.13391H122.366V26.9999H117.257ZM142.443 27.3299C140.673 27.3299 139.037 27.0329 137.532 26.4389C136.051 25.8449 134.757 25.0089 133.651 23.9309C132.567 22.8309 131.715 21.5329 131.096 20.0369C130.499 18.5189 130.2 16.8469 130.2 15.0209C130.2 12.6009 130.72 10.4889 131.76 8.68491C132.799 6.85893 134.237 5.43991 136.073 4.42791C137.931 3.41591 140.043 2.90991 142.409 2.90991C144.821 2.90991 146.944 3.41591 148.779 4.42791C150.616 5.43991 152.053 6.85893 153.093 8.68491C154.154 10.5109 154.685 12.6339 154.685 15.0539C154.685 16.8579 154.376 18.5189 153.756 20.0369C153.159 21.5329 152.308 22.8309 151.201 23.9309C150.118 25.0089 148.824 25.8449 147.32 26.4389C145.838 27.0329 144.212 27.3299 142.443 27.3299ZM142.409 23.3039C143.803 23.3039 145.03 22.9519 146.092 22.2479C147.154 21.5439 147.983 20.5759 148.58 19.3439C149.2 18.0899 149.509 16.6379 149.509 14.9879C149.509 13.3599 149.211 11.9409 148.614 10.7309C148.016 9.52089 147.187 8.58591 146.125 7.92591C145.064 7.26591 143.825 6.93591 142.409 6.93591C141.016 6.93591 139.788 7.26591 138.727 7.92591C137.665 8.58591 136.836 9.52089 136.238 10.7309C135.664 11.9189 135.376 13.3379 135.376 14.9879C135.376 16.6599 135.674 18.1229 136.272 19.3769C136.869 20.6089 137.698 21.5769 138.76 22.2809C139.822 22.9629 141.038 23.3039 142.409 23.3039ZM157.202 26.9999V3.23991H167.885C169.61 3.23991 171.114 3.53691 172.397 4.13091C173.68 4.70291 174.675 5.51691 175.383 6.57291C176.091 7.62891 176.445 8.86089 176.445 10.2689C176.445 11.6549 176.091 12.8759 175.383 13.9319C174.675 14.9659 173.68 15.7799 172.397 16.3739C171.114 16.9459 169.61 17.2319 167.885 17.2319H161.249V13.5029H167.752C168.969 13.5029 169.898 13.2279 170.539 12.6779C171.203 12.1059 171.534 11.3139 171.534 10.3019C171.534 9.26793 171.214 8.48691 170.572 7.95891C169.931 7.40889 168.991 7.13391 167.752 7.13391H162.311V26.9999H157.202ZM170.672 26.9999L161.083 14.6579H166.491L177.573 26.9999H170.672ZM185.538 26.9999V17.3969L176.647 3.23991H182.784L189.818 15.8129H186.932L193.932 3.23991H199.539L190.647 17.3969V26.9999H185.538Z" fill="#0E90DA"/>
</svg>
