<svg width="21" height="22" viewBox="0 0 21 22" fill="none" xmlns="http://www.w3.org/2000/svg">
<rect y="0.5" width="21" height="21" rx="5" fill="#0E90DA"/>
<path d="M14.7847 12.9013H12.331C12.1873 12.9013 12.0496 12.9584 11.948 13.0599C11.8464 13.1615 11.7893 13.2993 11.7893 13.443C11.7893 13.5866 11.8464 13.7244 11.948 13.826C12.0496 13.9276 12.1873 13.9846 12.331 13.9846H13.631C13.0335 14.609 12.263 15.0405 11.4184 15.2236C10.5738 15.4068 9.69373 15.3332 8.89129 15.0123C8.08885 14.6914 7.40068 14.138 6.91519 13.423C6.42971 12.708 6.16909 11.8643 6.16683 11C6.16683 10.8564 6.10976 10.7186 6.00818 10.617C5.9066 10.5154 5.76882 10.4584 5.62516 10.4584C5.4815 10.4584 5.34373 10.5154 5.24215 10.617C5.14056 10.7186 5.0835 10.8564 5.0835 11C5.08636 12.0578 5.39887 13.0916 5.98245 13.9738C6.56603 14.856 7.39515 15.5481 8.36748 15.9645C9.33981 16.381 10.4128 16.5037 11.454 16.3174C12.4953 16.1311 13.4592 15.644 14.2268 14.9163V15.875C14.2268 16.0187 14.2839 16.1565 14.3855 16.2581C14.4871 16.3596 14.6248 16.4167 14.7685 16.4167C14.9122 16.4167 15.0499 16.3596 15.1515 16.2581C15.2531 16.1565 15.3102 16.0187 15.3102 15.875V13.4375C15.3088 13.2976 15.2534 13.1636 15.1554 13.0636C15.0575 12.9637 14.9246 12.9055 14.7847 12.9013ZM10.5002 5.58337C9.11154 5.58733 7.77747 6.12445 6.7735 7.08379V6.12504C6.7735 5.98138 6.71643 5.84361 6.61485 5.74202C6.51326 5.64044 6.37549 5.58337 6.23183 5.58337C6.08817 5.58337 5.9504 5.64044 5.84881 5.74202C5.74723 5.84361 5.69016 5.98138 5.69016 6.12504V8.56254C5.69016 8.7062 5.74723 8.84397 5.84881 8.94556C5.9504 9.04714 6.08817 9.10421 6.23183 9.10421H8.66933C8.81299 9.10421 8.95076 9.04714 9.05235 8.94556C9.15393 8.84397 9.211 8.7062 9.211 8.56254C9.211 8.41888 9.15393 8.28111 9.05235 8.17952C8.95076 8.07794 8.81299 8.02087 8.66933 8.02087H7.36933C7.9665 7.3968 8.73655 6.96544 9.58063 6.78214C10.4247 6.59885 11.3043 6.67199 12.1065 6.99217C12.9088 7.31236 13.597 7.86499 14.0829 8.57912C14.5688 9.29325 14.8302 10.1363 14.8335 11C14.8335 11.1437 14.8906 11.2815 14.9921 11.3831C15.0937 11.4846 15.2315 11.5417 15.3752 11.5417C15.5188 11.5417 15.6566 11.4846 15.7582 11.3831C15.8598 11.2815 15.9168 11.1437 15.9168 11C15.9168 10.2887 15.7767 9.58435 15.5045 8.92717C15.2323 8.26999 14.8333 7.67286 14.3303 7.16988C13.8273 6.6669 13.2302 6.26791 12.573 5.99569C11.9159 5.72348 11.2115 5.58337 10.5002 5.58337Z" fill="#F8FDFF"/>
</svg>
